<svg xmlns="http://www.w3.org/2000/svg" width="1680" height="980" viewBox="0 0 1680 980">
  <defs>
    <marker id="arrow" markerWidth="12" markerHeight="12" refX="9" refY="4" orient="auto" markerUnits="strokeWidth">
      <path d="M0 0 L10 4 L0 8 z"/>
    </marker>
  </defs>
  <rect x="0" y="0" width="1680" height="980" fill="#EFE9D9"/>
  <rect x="74" y="58" width="1532" height="862" fill="#0F0F0F"/>
  <rect x="52" y="36" width="1532" height="862" fill="#EFE9D9" stroke="#0F0F0F" stroke-width="4"/>
  <text x="92" y="112" font-size="48" font-weight="800" fill="#0F0F0F">EDA SKILL EXECUTION ARCHITECTURE</text>
  <rect x="1100" y="64" width="430" height="54" fill="#F5C518" stroke="#0F0F0F" stroke-width="4"/>
  <text x="1128" y="100" font-size="20" font-weight="800" fill="#0F0F0F">SERIAL GATES + PARALLEL DEPTH</text>

  <rect x="100" y="172" width="290" height="130" fill="#1F8A4C" stroke="#0F0F0F" stroke-width="4"/>
  <text x="128" y="222" font-size="30" font-weight="800" fill="#0F0F0F">PHASE 0</text>
  <text x="128" y="262" font-size="21" font-weight="700" fill="#0F0F0F">Load + normalize</text>

  <rect x="486" y="172" width="330" height="130" fill="#F06CA8" stroke="#0F0F0F" stroke-width="4"/>
  <text x="514" y="222" font-size="30" font-weight="800" fill="#0F0F0F">PHASE 1</text>
  <text x="514" y="262" font-size="24" font-weight="700" fill="#0F0F0F">Data quality gate</text>

  <line x1="390" y1="237" x2="486" y2="237" stroke="#0F0F0F" stroke-width="4" marker-end="url(#arrow)"/>

  <rect x="912" y="150" width="588" height="176" fill="#EFE9D9" stroke="#0F0F0F" stroke-width="4"/>
  <rect x="934" y="174" width="542" height="52" fill="#E85A1F" stroke="#0F0F0F" stroke-width="4"/>
  <text x="960" y="209" font-size="22" font-weight="800" fill="#0F0F0F">FAN-OUT: INDEPENDENT PASSES</text>
  <text x="950" y="262" font-size="20" font-weight="700" fill="#0F0F0F">Same clean input. Separate evidence.</text>
  <line x1="816" y1="237" x2="912" y2="237" stroke="#0F0F0F" stroke-width="4" marker-end="url(#arrow)"/>

  <rect x="132" y="430" width="284" height="134" fill="#F5C518" stroke="#0F0F0F" stroke-width="4"/>
  <text x="160" y="478" font-size="26" font-weight="800" fill="#0F0F0F">UNIVARIATE</text>
  <text x="160" y="516" font-size="22" font-weight="700" fill="#0F0F0F">Distributions</text>
  <text x="160" y="548" font-size="22" font-weight="700" fill="#0F0F0F">Frequencies</text>

  <rect x="456" y="430" width="284" height="134" fill="#1F8A4C" stroke="#0F0F0F" stroke-width="4"/>
  <text x="484" y="478" font-size="26" font-weight="800" fill="#0F0F0F">RELATIONS</text>
  <text x="484" y="516" font-size="22" font-weight="700" fill="#0F0F0F">Correlation</text>
  <text x="484" y="548" font-size="22" font-weight="700" fill="#0F0F0F">Cross-tabs</text>

  <rect x="780" y="430" width="284" height="134" fill="#F06CA8" stroke="#0F0F0F" stroke-width="4"/>
  <text x="808" y="478" font-size="26" font-weight="800" fill="#0F0F0F">ANOMALIES</text>
  <text x="808" y="516" font-size="22" font-weight="700" fill="#0F0F0F">Outliers</text>
  <text x="808" y="548" font-size="22" font-weight="700" fill="#0F0F0F">Impossible combos</text>

  <rect x="1104" y="430" width="284" height="134" fill="#E85A1F" stroke="#0F0F0F" stroke-width="4"/>
  <text x="1132" y="478" font-size="26" font-weight="800" fill="#0F0F0F">FUN FACTS</text>
  <text x="1132" y="516" font-size="22" font-weight="700" fill="#0F0F0F">Surprising</text>
  <text x="1132" y="548" font-size="22" font-weight="700" fill="#0F0F0F">Number-backed</text>

  <line x1="1206" y1="326" x2="274" y2="430" stroke="#0F0F0F" stroke-width="4" marker-end="url(#arrow)"/>
  <line x1="1206" y1="326" x2="598" y2="430" stroke="#0F0F0F" stroke-width="4" marker-end="url(#arrow)"/>
  <line x1="1206" y1="326" x2="922" y2="430" stroke="#0F0F0F" stroke-width="4" marker-end="url(#arrow)"/>
  <line x1="1206" y1="326" x2="1246" y2="430" stroke="#0F0F0F" stroke-width="4" marker-end="url(#arrow)"/>

  <rect x="230" y="692" width="1040" height="126" fill="#EFE9D9" stroke="#0F0F0F" stroke-width="4"/>
  <rect x="252" y="714" width="306" height="82" fill="#F5C518" stroke="#0F0F0F" stroke-width="4"/>
  <text x="278" y="766" font-size="28" font-weight="800" fill="#0F0F0F">FAN-IN</text>
  <text x="594" y="744" font-size="23" font-weight="800" fill="#0F0F0F">Rerun headline numbers and resolve conflicts.</text>
  <text x="594" y="780" font-size="23" font-weight="800" fill="#0F0F0F">Then write one adaptive Markdown report.</text>

  <polyline points="274,564 274,640 750,640 750,692" fill="none" stroke="#0F0F0F" stroke-width="4" marker-end="url(#arrow)"/>
  <polyline points="598,564 598,640 750,640 750,692" fill="none" stroke="#0F0F0F" stroke-width="4" marker-end="url(#arrow)"/>
  <polyline points="922,564 922,640 750,640 750,692" fill="none" stroke="#0F0F0F" stroke-width="4" marker-end="url(#arrow)"/>
  <polyline points="1246,564 1246,640 750,640 750,692" fill="none" stroke="#0F0F0F" stroke-width="4" marker-end="url(#arrow)"/>

  <rect x="1320" y="692" width="170" height="126" fill="#1F8A4C" stroke="#0F0F0F" stroke-width="4"/>
  <text x="1350" y="744" font-size="25" font-weight="800" fill="#0F0F0F">MERMAID</text>
  <text x="1350" y="780" font-size="25" font-weight="800" fill="#0F0F0F">REPORT</text>
  <line x1="1270" y1="755" x2="1320" y2="755" stroke="#0F0F0F" stroke-width="4" marker-end="url(#arrow)"/>
</svg>
